<?xml version="1.0" standalone="no"?>
<!DOCTYPE svg PUBLIC "-//W3C//DTD SVG 20010904//EN"
 "http://www.w3.org/TR/2001/REC-SVG-20010904/DTD/svg10.dtd">
<svg version="1.0" xmlns="http://www.w3.org/2000/svg"
 width="512.000000pt" height="512.000000pt" viewBox="0 0 512.000000 512.000000"
 preserveAspectRatio="xMidYMid meet">
<metadata>
Created by potrace 1.14, written by Peter Selinger 2001-2017
</metadata>
<g transform="translate(0.000000,512.000000) scale(0.100000,-0.100000)"
fill="#000000" stroke="none">
<path d="M879 5116 c-3 -3 -23 -8 -45 -10 -82 -8 -294 -77 -302 -98 -2 -4 -9
-8 -16 -8 -23 0 -161 -98 -227 -162 -126 -120 -218 -275 -262 -442 -22 -80
-22 -94 -22 -826 0 -673 2 -778 18 -845 12 -49 38 -131 46 -144 6 -10 2 -32
-11 -65 -11 -28 -28 -89 -38 -136 -17 -79 -19 -137 -16 -830 1 -410 5 -757 9
-771 48 -183 120 -328 213 -429 18 -19 41 -44 51 -55 43 -47 211 -170 233
-170 5 0 12 -4 17 -8 10 -11 63 -34 123 -53 25 -8 52 -18 60 -21 8 -3 18 -6
21 -5 4 1 22 -3 40 -9 70 -21 183 -23 1269 -23 989 0 1367 5 1450 18 14 2 50
7 80 11 109 13 137 17 235 36 55 11 105 21 110 22 6 2 16 6 23 10 6 5 12 6 12
2 0 -3 16 1 35 9 19 8 35 13 35 11 0 -3 46 12 103 32 204 72 462 221 594 342
65 61 165 182 206 250 30 51 106 217 111 244 2 7 10 37 19 67 9 30 19 71 22
90 3 19 10 53 15 75 31 141 35 576 6 755 -7 47 -41 169 -53 193 -7 15 -11 27
-9 27 3 0 -11 33 -31 73 -54 107 -116 196 -191 273 -10 10 -1 28 47 91 54 72
147 233 134 233 -3 0 -1 6 5 13 20 24 66 184 93 322 17 89 23 186 23 390 1
204 -4 288 -24 385 -6 30 -13 65 -16 78 -18 91 -112 285 -176 366 -177 223
-448 416 -746 527 -59 23 -116 43 -126 45 -10 2 -33 8 -51 14 -18 6 -41 12
-51 14 -10 3 -62 14 -114 25 -95 20 -149 29 -205 36 -16 1 -55 6 -85 10 -30 3
-82 9 -115 12 -77 7 -2519 15 -2526 9z"/>
</g>
</svg>
