<?xml version="1.0" standalone="no"?>
<!DOCTYPE svg PUBLIC "-//W3C//DTD SVG 20010904//EN"
 "http://www.w3.org/TR/2001/REC-SVG-20010904/DTD/svg10.dtd">
<svg version="1.0" xmlns="http://www.w3.org/2000/svg"
 width="1024.000000pt" height="1024.000000pt" viewBox="0 0 1024.000000 1024.000000"
 preserveAspectRatio="xMidYMid meet">
<metadata>
Created by potrace 1.14, written by Peter Selinger 2001-2017
</metadata>
<g transform="translate(0.000000,1024.000000) scale(0.100000,-0.100000)"
fill="#000000" stroke="none">
<path d="M2780 5120 l0 -2461 1553 4 c1376 3 1566 5 1677 20 301 40 520 104
730 213 439 229 637 520 701 1029 15 120 15 469 0 575 -31 222 -100 389 -223
546 -26 34 -48 65 -48 68 0 4 18 30 39 59 159 213 234 474 248 862 20 605
-133 926 -587 1230 -223 149 -502 242 -880 292 -111 14 -303 17 -1667 20
l-1543 4 0 -2461z"/>
</g>
</svg>
